<svg xmlns="http://www.w3.org/2000/svg" x="0px" y="0px" width="100" height="100" viewBox="0 0 50 50">
  <path d="M35,22v2h1v-2H35z M35,22v2h1v-2H35z M44,4H6C4.91,4,4,4.91,4,6v38c0,1.09,0.91,2,2,2h38c1.09,0,2-0.91,2-2V6 C46,4.91,45.09,4,44,4z M12,24c0,1.38-0.19,5.89-2.61,6.24l-0.28-1.98C9.5,28.07,10,26.12,10,24v-2h2V24z M15,30h-2V19h2V30z M17.29,29.71c-1.2-1.2-1.29-4.73-1.29-5.78V22h2v1.93c0,1.91,0.34,3.99,0.71,4.36L17.29,29.71z M22,31h-3l1-2h3L22,31z M31,31h-7 l1-2h2v-7h-2l-2.1,4.38h1.72l-1,2H21c-0.8,0-1.28-0.91-0.82-1.57L22,24h-2c-0.78,0-1.26-0.85-0.86-1.51l3-5l1.72,1.02L21.77,22H25 v-2h6v2h-2v7h2V31z M40,28.5c0,1.38-1.12,2.5-2.5,2.5c-1.21,0-1.22-0.86-1.45-2H38v-3h-3v5h-2v-5h-2v-2h2v-2h-1v-2h1v-1h2v1h1 c1.1,0,2,0.9,2,2v2c1.1,0,2,0.9,2,2V28.5z M40,22h-1v-1c0-0.55,0.45-1,1-1s1,0.45,1,1S40.55,22,40,22z M35,24h1v-2h-1V24z M35,22 v2h1v-2H35z"></path>
</svg>